<mxfile host="Electron" modified="2024-01-15T01:45:16.852Z" agent="Mozilla/5.0 (Windows NT 10.0; Win64; x64) AppleWebKit/537.36 (KHTML, like Gecko) draw.io/22.1.16 Chrome/120.0.6099.109 Electron/28.1.0 Safari/537.36" etag="xjJZm3Acj-Ppe2R-zS4_" version="22.1.16" type="device">
  <diagram name="Страница — 1" id="9BpusU8XdxItvGW87dya">
    <mxGraphModel dx="2206" dy="1298" grid="1" gridSize="10" guides="1" tooltips="1" connect="1" arrows="1" fold="1" page="1" pageScale="1" pageWidth="827" pageHeight="1169" math="0" shadow="0">
      <root>
        <mxCell id="0" />
        <mxCell id="1" parent="0" />
        <mxCell id="NU05FTyYeji_VZMA1Zw4-2" value="" style="ellipse;whiteSpace=wrap;html=1;aspect=fixed;" vertex="1" parent="1">
          <mxGeometry x="80" y="330" width="60" height="60" as="geometry" />
        </mxCell>
        <mxCell id="NU05FTyYeji_VZMA1Zw4-3" value="Аутентификация" style="rounded=1;whiteSpace=wrap;html=1;" vertex="1" parent="1">
          <mxGeometry x="220" y="330" width="120" height="60" as="geometry" />
        </mxCell>
        <mxCell id="NU05FTyYeji_VZMA1Zw4-4" value="Реестр пользователей" style="shape=datastore;whiteSpace=wrap;html=1;" vertex="1" parent="1">
          <mxGeometry x="310" y="100" width="90" height="80" as="geometry" />
        </mxCell>
        <mxCell id="NU05FTyYeji_VZMA1Zw4-5" value="" style="endArrow=classic;html=1;rounded=0;dashed=1;exitX=0.5;exitY=0;exitDx=0;exitDy=0;entryX=0;entryY=0.5;entryDx=0;entryDy=0;" edge="1" parent="1" source="NU05FTyYeji_VZMA1Zw4-3" target="NU05FTyYeji_VZMA1Zw4-4">
          <mxGeometry width="50" height="50" relative="1" as="geometry">
            <mxPoint x="390" y="180" as="sourcePoint" />
            <mxPoint x="440" y="130" as="targetPoint" />
            <Array as="points">
              <mxPoint x="280" y="140" />
            </Array>
          </mxGeometry>
        </mxCell>
        <mxCell id="NU05FTyYeji_VZMA1Zw4-6" value="" style="endArrow=classic;html=1;rounded=0;exitX=1;exitY=0.5;exitDx=0;exitDy=0;entryX=0;entryY=0.5;entryDx=0;entryDy=0;" edge="1" parent="1" source="NU05FTyYeji_VZMA1Zw4-2" target="NU05FTyYeji_VZMA1Zw4-3">
          <mxGeometry width="50" height="50" relative="1" as="geometry">
            <mxPoint x="390" y="180" as="sourcePoint" />
            <mxPoint x="440" y="130" as="targetPoint" />
          </mxGeometry>
        </mxCell>
        <mxCell id="NU05FTyYeji_VZMA1Zw4-7" value="Создание организации" style="rounded=1;whiteSpace=wrap;html=1;" vertex="1" parent="1">
          <mxGeometry x="550" y="330" width="120" height="60" as="geometry" />
        </mxCell>
        <mxCell id="NU05FTyYeji_VZMA1Zw4-8" value="Добавление пользователей в организацию" style="rounded=1;whiteSpace=wrap;html=1;" vertex="1" parent="1">
          <mxGeometry x="750" y="330" width="120" height="60" as="geometry" />
        </mxCell>
        <mxCell id="NU05FTyYeji_VZMA1Zw4-9" value="Реестр организаций" style="shape=datastore;whiteSpace=wrap;html=1;" vertex="1" parent="1">
          <mxGeometry x="610" y="100" width="90" height="80" as="geometry" />
        </mxCell>
        <mxCell id="NU05FTyYeji_VZMA1Zw4-10" value="&amp;amp;" style="rhombus;whiteSpace=wrap;html=1;" vertex="1" parent="1">
          <mxGeometry x="390" y="320" width="80" height="80" as="geometry" />
        </mxCell>
        <mxCell id="NU05FTyYeji_VZMA1Zw4-11" value="" style="endArrow=classic;html=1;rounded=0;exitX=0.5;exitY=0;exitDx=0;exitDy=0;entryX=1;entryY=0.5;entryDx=0;entryDy=0;dashed=1;" edge="1" parent="1" source="NU05FTyYeji_VZMA1Zw4-8" target="NU05FTyYeji_VZMA1Zw4-9">
          <mxGeometry width="50" height="50" relative="1" as="geometry">
            <mxPoint x="670" y="420" as="sourcePoint" />
            <mxPoint x="720" y="370" as="targetPoint" />
            <Array as="points">
              <mxPoint x="810" y="140" />
            </Array>
          </mxGeometry>
        </mxCell>
        <mxCell id="NU05FTyYeji_VZMA1Zw4-12" value="" style="endArrow=classic;html=1;rounded=0;exitX=1;exitY=0.5;exitDx=0;exitDy=0;entryX=0;entryY=0.5;entryDx=0;entryDy=0;" edge="1" parent="1" source="NU05FTyYeji_VZMA1Zw4-3" target="NU05FTyYeji_VZMA1Zw4-10">
          <mxGeometry width="50" height="50" relative="1" as="geometry">
            <mxPoint x="670" y="420" as="sourcePoint" />
            <mxPoint x="720" y="370" as="targetPoint" />
          </mxGeometry>
        </mxCell>
        <mxCell id="NU05FTyYeji_VZMA1Zw4-13" value="" style="endArrow=classic;html=1;rounded=0;exitX=1;exitY=0.5;exitDx=0;exitDy=0;entryX=0;entryY=0.5;entryDx=0;entryDy=0;" edge="1" parent="1" source="NU05FTyYeji_VZMA1Zw4-10" target="NU05FTyYeji_VZMA1Zw4-7">
          <mxGeometry width="50" height="50" relative="1" as="geometry">
            <mxPoint x="670" y="420" as="sourcePoint" />
            <mxPoint x="720" y="370" as="targetPoint" />
          </mxGeometry>
        </mxCell>
        <mxCell id="NU05FTyYeji_VZMA1Zw4-14" value="" style="endArrow=classic;html=1;rounded=0;exitX=1;exitY=0.5;exitDx=0;exitDy=0;entryX=0;entryY=0.5;entryDx=0;entryDy=0;" edge="1" parent="1" source="NU05FTyYeji_VZMA1Zw4-7" target="NU05FTyYeji_VZMA1Zw4-8">
          <mxGeometry width="50" height="50" relative="1" as="geometry">
            <mxPoint x="670" y="420" as="sourcePoint" />
            <mxPoint x="720" y="370" as="targetPoint" />
          </mxGeometry>
        </mxCell>
        <mxCell id="NU05FTyYeji_VZMA1Zw4-15" value="Выпуск сертификатов" style="rounded=1;whiteSpace=wrap;html=1;" vertex="1" parent="1">
          <mxGeometry x="510" y="480" width="120" height="60" as="geometry" />
        </mxCell>
        <mxCell id="NU05FTyYeji_VZMA1Zw4-16" value="Проведение транзакции" style="rounded=1;whiteSpace=wrap;html=1;" vertex="1" parent="1">
          <mxGeometry x="810" y="480" width="120" height="60" as="geometry" />
        </mxCell>
        <mxCell id="NU05FTyYeji_VZMA1Zw4-17" value="" style="endArrow=classic;html=1;rounded=0;exitX=0.5;exitY=1;exitDx=0;exitDy=0;entryX=0;entryY=0.5;entryDx=0;entryDy=0;" edge="1" parent="1" source="NU05FTyYeji_VZMA1Zw4-10" target="NU05FTyYeji_VZMA1Zw4-15">
          <mxGeometry width="50" height="50" relative="1" as="geometry">
            <mxPoint x="670" y="420" as="sourcePoint" />
            <mxPoint x="720" y="370" as="targetPoint" />
            <Array as="points">
              <mxPoint x="430" y="510" />
            </Array>
          </mxGeometry>
        </mxCell>
        <mxCell id="NU05FTyYeji_VZMA1Zw4-18" value="&amp;amp;" style="rhombus;whiteSpace=wrap;html=1;" vertex="1" parent="1">
          <mxGeometry x="680" y="470" width="80" height="80" as="geometry" />
        </mxCell>
        <mxCell id="NU05FTyYeji_VZMA1Zw4-19" value="" style="endArrow=classic;html=1;rounded=0;exitX=1;exitY=0.5;exitDx=0;exitDy=0;entryX=0;entryY=0.5;entryDx=0;entryDy=0;" edge="1" parent="1" source="NU05FTyYeji_VZMA1Zw4-15" target="NU05FTyYeji_VZMA1Zw4-18">
          <mxGeometry width="50" height="50" relative="1" as="geometry">
            <mxPoint x="670" y="420" as="sourcePoint" />
            <mxPoint x="720" y="370" as="targetPoint" />
          </mxGeometry>
        </mxCell>
        <mxCell id="NU05FTyYeji_VZMA1Zw4-21" value="" style="endArrow=classic;html=1;rounded=0;exitX=0;exitY=0.5;exitDx=0;exitDy=0;entryX=0.5;entryY=0;entryDx=0;entryDy=0;dashed=1;" edge="1" parent="1" source="NU05FTyYeji_VZMA1Zw4-9" target="NU05FTyYeji_VZMA1Zw4-15">
          <mxGeometry width="50" height="50" relative="1" as="geometry">
            <mxPoint x="670" y="420" as="sourcePoint" />
            <mxPoint x="720" y="370" as="targetPoint" />
            <Array as="points">
              <mxPoint x="530" y="140" />
              <mxPoint x="530" y="300" />
              <mxPoint x="530" y="440" />
              <mxPoint x="570" y="440" />
            </Array>
          </mxGeometry>
        </mxCell>
        <mxCell id="NU05FTyYeji_VZMA1Zw4-22" value="" style="endArrow=classic;html=1;rounded=0;exitX=1;exitY=0.5;exitDx=0;exitDy=0;entryX=0.25;entryY=0;entryDx=0;entryDy=0;dashed=1;" edge="1" parent="1" source="NU05FTyYeji_VZMA1Zw4-4" target="NU05FTyYeji_VZMA1Zw4-15">
          <mxGeometry width="50" height="50" relative="1" as="geometry">
            <mxPoint x="670" y="420" as="sourcePoint" />
            <mxPoint x="720" y="370" as="targetPoint" />
            <Array as="points">
              <mxPoint x="500" y="140" />
              <mxPoint x="500" y="450" />
              <mxPoint x="540" y="450" />
            </Array>
          </mxGeometry>
        </mxCell>
        <mxCell id="NU05FTyYeji_VZMA1Zw4-23" value="Реестр сертификатов" style="shape=datastore;whiteSpace=wrap;html=1;" vertex="1" parent="1">
          <mxGeometry x="630" y="620" width="90" height="80" as="geometry" />
        </mxCell>
        <mxCell id="NU05FTyYeji_VZMA1Zw4-24" value="" style="ellipse;whiteSpace=wrap;html=1;aspect=fixed;" vertex="1" parent="1">
          <mxGeometry x="1050" y="480" width="60" height="60" as="geometry" />
        </mxCell>
        <mxCell id="NU05FTyYeji_VZMA1Zw4-25" value="" style="endArrow=classic;html=1;rounded=0;entryX=0;entryY=0.5;entryDx=0;entryDy=0;exitX=1;exitY=0.5;exitDx=0;exitDy=0;" edge="1" parent="1" source="NU05FTyYeji_VZMA1Zw4-16" target="NU05FTyYeji_VZMA1Zw4-24">
          <mxGeometry width="50" height="50" relative="1" as="geometry">
            <mxPoint x="670" y="420" as="sourcePoint" />
            <mxPoint x="720" y="370" as="targetPoint" />
          </mxGeometry>
        </mxCell>
        <mxCell id="NU05FTyYeji_VZMA1Zw4-26" value="" style="endArrow=classic;html=1;rounded=0;exitX=1;exitY=0.5;exitDx=0;exitDy=0;entryX=0;entryY=0.5;entryDx=0;entryDy=0;" edge="1" parent="1" source="NU05FTyYeji_VZMA1Zw4-18" target="NU05FTyYeji_VZMA1Zw4-16">
          <mxGeometry width="50" height="50" relative="1" as="geometry">
            <mxPoint x="670" y="420" as="sourcePoint" />
            <mxPoint x="720" y="370" as="targetPoint" />
          </mxGeometry>
        </mxCell>
        <mxCell id="NU05FTyYeji_VZMA1Zw4-27" value="Реестр транзакций" style="shape=datastore;whiteSpace=wrap;html=1;" vertex="1" parent="1">
          <mxGeometry x="920" y="620" width="90" height="80" as="geometry" />
        </mxCell>
        <mxCell id="NU05FTyYeji_VZMA1Zw4-28" value="" style="endArrow=classic;html=1;rounded=0;exitX=0.5;exitY=1;exitDx=0;exitDy=0;entryX=0;entryY=0.5;entryDx=0;entryDy=0;dashed=1;" edge="1" parent="1" source="NU05FTyYeji_VZMA1Zw4-15" target="NU05FTyYeji_VZMA1Zw4-23">
          <mxGeometry width="50" height="50" relative="1" as="geometry">
            <mxPoint x="670" y="420" as="sourcePoint" />
            <mxPoint x="720" y="370" as="targetPoint" />
            <Array as="points">
              <mxPoint x="570" y="660" />
            </Array>
          </mxGeometry>
        </mxCell>
        <mxCell id="NU05FTyYeji_VZMA1Zw4-29" value="" style="endArrow=classic;html=1;rounded=0;exitX=0.5;exitY=1;exitDx=0;exitDy=0;entryX=0;entryY=0.5;entryDx=0;entryDy=0;dashed=1;" edge="1" parent="1" source="NU05FTyYeji_VZMA1Zw4-16" target="NU05FTyYeji_VZMA1Zw4-27">
          <mxGeometry width="50" height="50" relative="1" as="geometry">
            <mxPoint x="670" y="420" as="sourcePoint" />
            <mxPoint x="720" y="370" as="targetPoint" />
            <Array as="points">
              <mxPoint x="870" y="660" />
            </Array>
          </mxGeometry>
        </mxCell>
        <mxCell id="NU05FTyYeji_VZMA1Zw4-30" value="" style="ellipse;whiteSpace=wrap;html=1;aspect=fixed;" vertex="1" parent="1">
          <mxGeometry x="60" y="1490" width="60" height="60" as="geometry" />
        </mxCell>
        <mxCell id="NU05FTyYeji_VZMA1Zw4-31" value="Аутентификация" style="rounded=1;whiteSpace=wrap;html=1;verticalAlign=top;" vertex="1" parent="1">
          <mxGeometry x="190" y="1420" width="520" height="200" as="geometry" />
        </mxCell>
        <mxCell id="NU05FTyYeji_VZMA1Zw4-32" value="Реестр пользователей" style="shape=datastore;whiteSpace=wrap;html=1;" vertex="1" parent="1">
          <mxGeometry x="405" y="1260" width="90" height="80" as="geometry" />
        </mxCell>
        <mxCell id="NU05FTyYeji_VZMA1Zw4-33" value="" style="ellipse;whiteSpace=wrap;html=1;aspect=fixed;" vertex="1" parent="1">
          <mxGeometry x="210" y="1510" width="60" height="60" as="geometry" />
        </mxCell>
        <mxCell id="NU05FTyYeji_VZMA1Zw4-34" value="Генерация пользовательских атрибутов и ключей" style="rounded=1;whiteSpace=wrap;html=1;" vertex="1" parent="1">
          <mxGeometry x="310" y="1510" width="120" height="60" as="geometry" />
        </mxCell>
        <mxCell id="NU05FTyYeji_VZMA1Zw4-35" value="Проверка пользовательских данных" style="rounded=1;whiteSpace=wrap;html=1;" vertex="1" parent="1">
          <mxGeometry x="460" y="1510" width="120" height="60" as="geometry" />
        </mxCell>
        <mxCell id="NU05FTyYeji_VZMA1Zw4-36" value="" style="ellipse;whiteSpace=wrap;html=1;aspect=fixed;" vertex="1" parent="1">
          <mxGeometry x="610" y="1510" width="60" height="60" as="geometry" />
        </mxCell>
        <mxCell id="NU05FTyYeji_VZMA1Zw4-38" value="" style="endArrow=classic;html=1;rounded=0;exitX=1;exitY=0.5;exitDx=0;exitDy=0;entryX=0;entryY=0.5;entryDx=0;entryDy=0;" edge="1" parent="1" source="NU05FTyYeji_VZMA1Zw4-33" target="NU05FTyYeji_VZMA1Zw4-34">
          <mxGeometry width="50" height="50" relative="1" as="geometry">
            <mxPoint x="540" y="1510" as="sourcePoint" />
            <mxPoint x="590" y="1460" as="targetPoint" />
          </mxGeometry>
        </mxCell>
        <mxCell id="NU05FTyYeji_VZMA1Zw4-39" value="" style="endArrow=classic;html=1;rounded=0;exitX=1;exitY=0.5;exitDx=0;exitDy=0;entryX=0;entryY=0.5;entryDx=0;entryDy=0;" edge="1" parent="1" source="NU05FTyYeji_VZMA1Zw4-34" target="NU05FTyYeji_VZMA1Zw4-35">
          <mxGeometry width="50" height="50" relative="1" as="geometry">
            <mxPoint x="540" y="1510" as="sourcePoint" />
            <mxPoint x="590" y="1460" as="targetPoint" />
          </mxGeometry>
        </mxCell>
        <mxCell id="NU05FTyYeji_VZMA1Zw4-40" value="" style="endArrow=classic;html=1;rounded=0;exitX=1;exitY=0.5;exitDx=0;exitDy=0;entryX=0;entryY=0.5;entryDx=0;entryDy=0;" edge="1" parent="1" source="NU05FTyYeji_VZMA1Zw4-35" target="NU05FTyYeji_VZMA1Zw4-36">
          <mxGeometry width="50" height="50" relative="1" as="geometry">
            <mxPoint x="540" y="1510" as="sourcePoint" />
            <mxPoint x="590" y="1460" as="targetPoint" />
          </mxGeometry>
        </mxCell>
        <mxCell id="NU05FTyYeji_VZMA1Zw4-41" value="" style="endArrow=classic;html=1;rounded=0;exitX=0.5;exitY=0;exitDx=0;exitDy=0;entryX=0.5;entryY=1;entryDx=0;entryDy=0;dashed=1;" edge="1" parent="1" source="NU05FTyYeji_VZMA1Zw4-31" target="NU05FTyYeji_VZMA1Zw4-32">
          <mxGeometry width="50" height="50" relative="1" as="geometry">
            <mxPoint x="580" y="1410" as="sourcePoint" />
            <mxPoint x="630" y="1360" as="targetPoint" />
          </mxGeometry>
        </mxCell>
        <mxCell id="NU05FTyYeji_VZMA1Zw4-42" value="" style="endArrow=classic;html=1;rounded=0;exitX=1;exitY=0.5;exitDx=0;exitDy=0;entryX=0;entryY=0.5;entryDx=0;entryDy=0;" edge="1" parent="1" source="NU05FTyYeji_VZMA1Zw4-30" target="NU05FTyYeji_VZMA1Zw4-31">
          <mxGeometry width="50" height="50" relative="1" as="geometry">
            <mxPoint x="580" y="1410" as="sourcePoint" />
            <mxPoint x="630" y="1360" as="targetPoint" />
          </mxGeometry>
        </mxCell>
        <mxCell id="NU05FTyYeji_VZMA1Zw4-43" value="Реестр организаций" style="shape=datastore;whiteSpace=wrap;html=1;" vertex="1" parent="1">
          <mxGeometry x="1010" y="1260" width="90" height="80" as="geometry" />
        </mxCell>
        <mxCell id="NU05FTyYeji_VZMA1Zw4-44" value="Реестр сертификатов" style="shape=datastore;whiteSpace=wrap;html=1;" vertex="1" parent="1">
          <mxGeometry x="780" y="2010" width="90" height="80" as="geometry" />
        </mxCell>
        <mxCell id="NU05FTyYeji_VZMA1Zw4-45" value="Реестр транзакций" style="shape=datastore;whiteSpace=wrap;html=1;" vertex="1" parent="1">
          <mxGeometry x="1740" y="1990" width="90" height="80" as="geometry" />
        </mxCell>
        <mxCell id="NU05FTyYeji_VZMA1Zw4-46" value="&amp;amp;" style="rhombus;whiteSpace=wrap;html=1;" vertex="1" parent="1">
          <mxGeometry x="820" y="1480" width="80" height="80" as="geometry" />
        </mxCell>
        <mxCell id="NU05FTyYeji_VZMA1Zw4-47" value="" style="endArrow=classic;html=1;rounded=0;exitX=1;exitY=0.5;exitDx=0;exitDy=0;entryX=0;entryY=0.5;entryDx=0;entryDy=0;" edge="1" parent="1" source="NU05FTyYeji_VZMA1Zw4-31" target="NU05FTyYeji_VZMA1Zw4-46">
          <mxGeometry width="50" height="50" relative="1" as="geometry">
            <mxPoint x="580" y="1400" as="sourcePoint" />
            <mxPoint x="630" y="1350" as="targetPoint" />
          </mxGeometry>
        </mxCell>
        <mxCell id="NU05FTyYeji_VZMA1Zw4-48" value="Создание организации" style="rounded=1;whiteSpace=wrap;html=1;" vertex="1" parent="1">
          <mxGeometry x="960" y="1490" width="120" height="60" as="geometry" />
        </mxCell>
        <mxCell id="NU05FTyYeji_VZMA1Zw4-49" value="Добавление пользователей в организацию" style="rounded=1;whiteSpace=wrap;html=1;" vertex="1" parent="1">
          <mxGeometry x="1160" y="1490" width="120" height="60" as="geometry" />
        </mxCell>
        <mxCell id="NU05FTyYeji_VZMA1Zw4-50" value="" style="endArrow=classic;html=1;rounded=0;exitX=1;exitY=0.5;exitDx=0;exitDy=0;entryX=0;entryY=0.5;entryDx=0;entryDy=0;" edge="1" parent="1" source="NU05FTyYeji_VZMA1Zw4-48" target="NU05FTyYeji_VZMA1Zw4-49">
          <mxGeometry width="50" height="50" relative="1" as="geometry">
            <mxPoint x="1080" y="1580" as="sourcePoint" />
            <mxPoint x="1130" y="1530" as="targetPoint" />
          </mxGeometry>
        </mxCell>
        <mxCell id="NU05FTyYeji_VZMA1Zw4-51" value="" style="endArrow=classic;html=1;rounded=0;exitX=1;exitY=0.5;exitDx=0;exitDy=0;entryX=0;entryY=0.5;entryDx=0;entryDy=0;" edge="1" parent="1" source="NU05FTyYeji_VZMA1Zw4-46" target="NU05FTyYeji_VZMA1Zw4-48">
          <mxGeometry width="50" height="50" relative="1" as="geometry">
            <mxPoint x="580" y="1410" as="sourcePoint" />
            <mxPoint x="630" y="1360" as="targetPoint" />
          </mxGeometry>
        </mxCell>
        <mxCell id="NU05FTyYeji_VZMA1Zw4-52" value="" style="endArrow=classic;html=1;rounded=0;exitX=0.5;exitY=0;exitDx=0;exitDy=0;entryX=1;entryY=0.5;entryDx=0;entryDy=0;dashed=1;" edge="1" parent="1" source="NU05FTyYeji_VZMA1Zw4-49" target="NU05FTyYeji_VZMA1Zw4-43">
          <mxGeometry width="50" height="50" relative="1" as="geometry">
            <mxPoint x="1200" y="1490" as="sourcePoint" />
            <mxPoint x="1250" y="1440" as="targetPoint" />
            <Array as="points">
              <mxPoint x="1220" y="1300" />
            </Array>
          </mxGeometry>
        </mxCell>
        <mxCell id="NU05FTyYeji_VZMA1Zw4-53" value="Выпуск сертификата" style="rounded=1;whiteSpace=wrap;html=1;verticalAlign=top;" vertex="1" parent="1">
          <mxGeometry x="500" y="1750" width="650" height="150" as="geometry" />
        </mxCell>
        <mxCell id="NU05FTyYeji_VZMA1Zw4-54" value="" style="endArrow=classic;html=1;rounded=0;exitX=0.5;exitY=1;exitDx=0;exitDy=0;entryX=0.5;entryY=0;entryDx=0;entryDy=0;" edge="1" parent="1" source="NU05FTyYeji_VZMA1Zw4-46" target="NU05FTyYeji_VZMA1Zw4-53">
          <mxGeometry width="50" height="50" relative="1" as="geometry">
            <mxPoint x="680" y="1690" as="sourcePoint" />
            <mxPoint x="730" y="1640" as="targetPoint" />
            <Array as="points">
              <mxPoint x="860" y="1650" />
              <mxPoint x="825" y="1650" />
            </Array>
          </mxGeometry>
        </mxCell>
        <mxCell id="NU05FTyYeji_VZMA1Zw4-55" value="" style="endArrow=classic;html=1;rounded=0;exitX=0;exitY=0.5;exitDx=0;exitDy=0;dashed=1;entryX=0.75;entryY=0;entryDx=0;entryDy=0;" edge="1" parent="1" source="NU05FTyYeji_VZMA1Zw4-43" target="NU05FTyYeji_VZMA1Zw4-53">
          <mxGeometry width="50" height="50" relative="1" as="geometry">
            <mxPoint x="680" y="1690" as="sourcePoint" />
            <mxPoint x="990" y="1750" as="targetPoint" />
            <Array as="points">
              <mxPoint x="930" y="1300" />
              <mxPoint x="930" y="1650" />
              <mxPoint x="988" y="1650" />
            </Array>
          </mxGeometry>
        </mxCell>
        <mxCell id="NU05FTyYeji_VZMA1Zw4-56" value="" style="endArrow=classic;html=1;rounded=0;exitX=1;exitY=0.5;exitDx=0;exitDy=0;entryX=0.25;entryY=0;entryDx=0;entryDy=0;dashed=1;" edge="1" parent="1" source="NU05FTyYeji_VZMA1Zw4-32" target="NU05FTyYeji_VZMA1Zw4-53">
          <mxGeometry width="50" height="50" relative="1" as="geometry">
            <mxPoint x="680" y="1690" as="sourcePoint" />
            <mxPoint x="730" y="1640" as="targetPoint" />
            <Array as="points">
              <mxPoint x="760" y="1300" />
              <mxPoint x="760" y="1650" />
              <mxPoint x="663" y="1650" />
            </Array>
          </mxGeometry>
        </mxCell>
        <mxCell id="NU05FTyYeji_VZMA1Zw4-57" value="" style="ellipse;whiteSpace=wrap;html=1;aspect=fixed;" vertex="1" parent="1">
          <mxGeometry x="510" y="1810" width="60" height="60" as="geometry" />
        </mxCell>
        <mxCell id="NU05FTyYeji_VZMA1Zw4-58" value="" style="ellipse;whiteSpace=wrap;html=1;aspect=fixed;" vertex="1" parent="1">
          <mxGeometry x="1080" y="1810" width="60" height="60" as="geometry" />
        </mxCell>
        <mxCell id="NU05FTyYeji_VZMA1Zw4-59" value="Получение пользовательских данных" style="rounded=1;whiteSpace=wrap;html=1;" vertex="1" parent="1">
          <mxGeometry x="600" y="1810" width="120" height="60" as="geometry" />
        </mxCell>
        <mxCell id="NU05FTyYeji_VZMA1Zw4-61" value="Проверка пользовательских данных" style="rounded=1;whiteSpace=wrap;html=1;" vertex="1" parent="1">
          <mxGeometry x="760" y="1810" width="120" height="60" as="geometry" />
        </mxCell>
        <mxCell id="NU05FTyYeji_VZMA1Zw4-62" value="Подпись данных своим закрытым ключом" style="rounded=1;whiteSpace=wrap;html=1;" vertex="1" parent="1">
          <mxGeometry x="920" y="1810" width="120" height="60" as="geometry" />
        </mxCell>
        <mxCell id="NU05FTyYeji_VZMA1Zw4-63" value="" style="endArrow=classic;html=1;rounded=0;exitX=1;exitY=0.5;exitDx=0;exitDy=0;entryX=0;entryY=0.5;entryDx=0;entryDy=0;" edge="1" parent="1" source="NU05FTyYeji_VZMA1Zw4-57" target="NU05FTyYeji_VZMA1Zw4-59">
          <mxGeometry width="50" height="50" relative="1" as="geometry">
            <mxPoint x="760" y="1870" as="sourcePoint" />
            <mxPoint x="810" y="1820" as="targetPoint" />
          </mxGeometry>
        </mxCell>
        <mxCell id="NU05FTyYeji_VZMA1Zw4-64" value="" style="endArrow=classic;html=1;rounded=0;exitX=1;exitY=0.5;exitDx=0;exitDy=0;entryX=0;entryY=0.5;entryDx=0;entryDy=0;" edge="1" parent="1" source="NU05FTyYeji_VZMA1Zw4-59" target="NU05FTyYeji_VZMA1Zw4-61">
          <mxGeometry width="50" height="50" relative="1" as="geometry">
            <mxPoint x="760" y="1870" as="sourcePoint" />
            <mxPoint x="810" y="1820" as="targetPoint" />
          </mxGeometry>
        </mxCell>
        <mxCell id="NU05FTyYeji_VZMA1Zw4-65" value="" style="endArrow=classic;html=1;rounded=0;exitX=1;exitY=0.5;exitDx=0;exitDy=0;entryX=0;entryY=0.5;entryDx=0;entryDy=0;" edge="1" parent="1" source="NU05FTyYeji_VZMA1Zw4-61" target="NU05FTyYeji_VZMA1Zw4-62">
          <mxGeometry width="50" height="50" relative="1" as="geometry">
            <mxPoint x="760" y="1870" as="sourcePoint" />
            <mxPoint x="810" y="1820" as="targetPoint" />
          </mxGeometry>
        </mxCell>
        <mxCell id="NU05FTyYeji_VZMA1Zw4-66" value="" style="endArrow=classic;html=1;rounded=0;exitX=1;exitY=0.5;exitDx=0;exitDy=0;entryX=0;entryY=0.5;entryDx=0;entryDy=0;" edge="1" parent="1" source="NU05FTyYeji_VZMA1Zw4-62" target="NU05FTyYeji_VZMA1Zw4-58">
          <mxGeometry width="50" height="50" relative="1" as="geometry">
            <mxPoint x="760" y="1870" as="sourcePoint" />
            <mxPoint x="810" y="1820" as="targetPoint" />
          </mxGeometry>
        </mxCell>
        <mxCell id="NU05FTyYeji_VZMA1Zw4-67" value="" style="endArrow=classic;html=1;rounded=0;exitX=0.5;exitY=1;exitDx=0;exitDy=0;entryX=0.5;entryY=0;entryDx=0;entryDy=0;dashed=1;" edge="1" parent="1" source="NU05FTyYeji_VZMA1Zw4-53" target="NU05FTyYeji_VZMA1Zw4-44">
          <mxGeometry width="50" height="50" relative="1" as="geometry">
            <mxPoint x="760" y="1870" as="sourcePoint" />
            <mxPoint x="810" y="1820" as="targetPoint" />
          </mxGeometry>
        </mxCell>
        <mxCell id="NU05FTyYeji_VZMA1Zw4-68" value="Проведение транзакции" style="rounded=1;whiteSpace=wrap;html=1;verticalAlign=top;" vertex="1" parent="1">
          <mxGeometry x="1270" y="1610" width="520" height="200" as="geometry" />
        </mxCell>
        <mxCell id="NU05FTyYeji_VZMA1Zw4-69" value="" style="ellipse;whiteSpace=wrap;html=1;aspect=fixed;" vertex="1" parent="1">
          <mxGeometry x="1280" y="1680" width="60" height="60" as="geometry" />
        </mxCell>
        <mxCell id="NU05FTyYeji_VZMA1Zw4-70" value="" style="ellipse;whiteSpace=wrap;html=1;aspect=fixed;" vertex="1" parent="1">
          <mxGeometry x="1710" y="1680" width="60" height="60" as="geometry" />
        </mxCell>
        <mxCell id="NU05FTyYeji_VZMA1Zw4-71" value="Получение сертификатов отправителя и получателя" style="rounded=1;whiteSpace=wrap;html=1;" vertex="1" parent="1">
          <mxGeometry x="1380" y="1680" width="120" height="60" as="geometry" />
        </mxCell>
        <mxCell id="NU05FTyYeji_VZMA1Zw4-72" value="" style="endArrow=classic;html=1;rounded=0;exitX=1;exitY=0.5;exitDx=0;exitDy=0;entryX=0.25;entryY=1;entryDx=0;entryDy=0;dashed=1;" edge="1" parent="1" source="NU05FTyYeji_VZMA1Zw4-23" target="NU05FTyYeji_VZMA1Zw4-16">
          <mxGeometry width="50" height="50" relative="1" as="geometry">
            <mxPoint x="840" y="790" as="sourcePoint" />
            <mxPoint x="890" y="740" as="targetPoint" />
            <Array as="points">
              <mxPoint x="840" y="660" />
            </Array>
          </mxGeometry>
        </mxCell>
        <mxCell id="NU05FTyYeji_VZMA1Zw4-73" value="" style="endArrow=classic;html=1;rounded=0;exitX=1;exitY=0.5;exitDx=0;exitDy=0;entryX=0.25;entryY=1;entryDx=0;entryDy=0;dashed=1;" edge="1" parent="1" source="NU05FTyYeji_VZMA1Zw4-44" target="NU05FTyYeji_VZMA1Zw4-68">
          <mxGeometry width="50" height="50" relative="1" as="geometry">
            <mxPoint x="1040" y="1780" as="sourcePoint" />
            <mxPoint x="1090" y="1730" as="targetPoint" />
            <Array as="points">
              <mxPoint x="1400" y="2050" />
              <mxPoint x="1400" y="1960" />
              <mxPoint x="1400" y="1880" />
            </Array>
          </mxGeometry>
        </mxCell>
        <mxCell id="NU05FTyYeji_VZMA1Zw4-74" value="Верификация транзакции на основе ZKP алгоритмов" style="rounded=1;whiteSpace=wrap;html=1;" vertex="1" parent="1">
          <mxGeometry x="1550" y="1680" width="120" height="60" as="geometry" />
        </mxCell>
        <mxCell id="NU05FTyYeji_VZMA1Zw4-75" value="" style="endArrow=classic;html=1;rounded=0;exitX=1;exitY=0.5;exitDx=0;exitDy=0;entryX=0;entryY=0.5;entryDx=0;entryDy=0;" edge="1" parent="1" source="NU05FTyYeji_VZMA1Zw4-69" target="NU05FTyYeji_VZMA1Zw4-71">
          <mxGeometry width="50" height="50" relative="1" as="geometry">
            <mxPoint x="1040" y="1780" as="sourcePoint" />
            <mxPoint x="1090" y="1730" as="targetPoint" />
          </mxGeometry>
        </mxCell>
        <mxCell id="NU05FTyYeji_VZMA1Zw4-76" value="&amp;amp;" style="rhombus;whiteSpace=wrap;html=1;" vertex="1" parent="1">
          <mxGeometry x="1110" y="1600" width="80" height="80" as="geometry" />
        </mxCell>
        <mxCell id="NU05FTyYeji_VZMA1Zw4-77" value="" style="endArrow=classic;html=1;rounded=0;exitX=0.83;exitY=0.008;exitDx=0;exitDy=0;exitPerimeter=0;entryX=0;entryY=0.5;entryDx=0;entryDy=0;" edge="1" parent="1" source="NU05FTyYeji_VZMA1Zw4-53" target="NU05FTyYeji_VZMA1Zw4-76">
          <mxGeometry width="50" height="50" relative="1" as="geometry">
            <mxPoint x="1040" y="1710" as="sourcePoint" />
            <mxPoint x="1090" y="1660" as="targetPoint" />
            <Array as="points">
              <mxPoint x="1040" y="1640" />
            </Array>
          </mxGeometry>
        </mxCell>
        <mxCell id="NU05FTyYeji_VZMA1Zw4-78" value="" style="endArrow=classic;html=1;rounded=0;exitX=1;exitY=0.5;exitDx=0;exitDy=0;entryX=0;entryY=0.5;entryDx=0;entryDy=0;" edge="1" parent="1" source="NU05FTyYeji_VZMA1Zw4-76" target="NU05FTyYeji_VZMA1Zw4-68">
          <mxGeometry width="50" height="50" relative="1" as="geometry">
            <mxPoint x="1040" y="1710" as="sourcePoint" />
            <mxPoint x="1090" y="1660" as="targetPoint" />
            <Array as="points">
              <mxPoint x="1220" y="1640" />
              <mxPoint x="1220" y="1710" />
            </Array>
          </mxGeometry>
        </mxCell>
        <mxCell id="NU05FTyYeji_VZMA1Zw4-79" value="" style="endArrow=classic;html=1;rounded=0;exitX=1;exitY=0.5;exitDx=0;exitDy=0;entryX=0;entryY=0.5;entryDx=0;entryDy=0;" edge="1" parent="1" source="NU05FTyYeji_VZMA1Zw4-71" target="NU05FTyYeji_VZMA1Zw4-74">
          <mxGeometry width="50" height="50" relative="1" as="geometry">
            <mxPoint x="1260" y="1750" as="sourcePoint" />
            <mxPoint x="1310" y="1700" as="targetPoint" />
          </mxGeometry>
        </mxCell>
        <mxCell id="NU05FTyYeji_VZMA1Zw4-80" value="" style="endArrow=classic;html=1;rounded=0;exitX=1;exitY=0.5;exitDx=0;exitDy=0;entryX=0;entryY=0.5;entryDx=0;entryDy=0;" edge="1" parent="1" source="NU05FTyYeji_VZMA1Zw4-74" target="NU05FTyYeji_VZMA1Zw4-70">
          <mxGeometry width="50" height="50" relative="1" as="geometry">
            <mxPoint x="1260" y="1750" as="sourcePoint" />
            <mxPoint x="1310" y="1700" as="targetPoint" />
          </mxGeometry>
        </mxCell>
        <mxCell id="NU05FTyYeji_VZMA1Zw4-81" value="" style="ellipse;whiteSpace=wrap;html=1;aspect=fixed;" vertex="1" parent="1">
          <mxGeometry x="1940" y="1680" width="60" height="60" as="geometry" />
        </mxCell>
        <mxCell id="NU05FTyYeji_VZMA1Zw4-82" value="" style="endArrow=classic;html=1;rounded=0;exitX=1;exitY=0.5;exitDx=0;exitDy=0;entryX=0;entryY=0.5;entryDx=0;entryDy=0;" edge="1" parent="1" source="NU05FTyYeji_VZMA1Zw4-68" target="NU05FTyYeji_VZMA1Zw4-81">
          <mxGeometry width="50" height="50" relative="1" as="geometry">
            <mxPoint x="1690" y="1570" as="sourcePoint" />
            <mxPoint x="1740" y="1520" as="targetPoint" />
          </mxGeometry>
        </mxCell>
        <mxCell id="NU05FTyYeji_VZMA1Zw4-83" value="" style="endArrow=classic;html=1;rounded=0;exitX=0.75;exitY=1;exitDx=0;exitDy=0;entryX=0;entryY=0.5;entryDx=0;entryDy=0;dashed=1;" edge="1" parent="1" source="NU05FTyYeji_VZMA1Zw4-68" target="NU05FTyYeji_VZMA1Zw4-45">
          <mxGeometry width="50" height="50" relative="1" as="geometry">
            <mxPoint x="1520" y="1700" as="sourcePoint" />
            <mxPoint x="1570" y="1650" as="targetPoint" />
            <Array as="points">
              <mxPoint x="1660" y="2030" />
            </Array>
          </mxGeometry>
        </mxCell>
      </root>
    </mxGraphModel>
  </diagram>
</mxfile>
